<svg xmlns="http://www.w3.org/2000/svg" viewBox="0 0 512 120">
  <defs>
    <linearGradient id="amdocs_grad" x1="0%" y1="0%" x2="100%" y2="0%">
      <stop offset="0%" style="stop-color:#EC008C" />
      <stop offset="50%" style="stop-color:#FF6B5B" />
      <stop offset="100%" style="stop-color:#FFC20E" />
    </linearGradient>
  </defs>
  <g transform="translate(0, 30)">
    <path fill="#000033" d="M24.5,15.8c-1.1-1.1-2.6-1.7-4.3-1.7c-3.4,0-5.9,2.5-5.9,5.9s2.5,5.9,5.9,5.9c1.7,0,3.2-0.6,4.3-1.7v1.4h2.4V10.2h-2.4V15.8z M20.2,23.6c-2.1,0-3.6-1.5-3.6-3.6s1.5-3.6,3.6-3.6s3.6,1.5,3.6,3.6S22.3,23.6,20.2,23.6z M38.4,14.4c-1.8,0-3.2,0.8-4.1,2.1c-0.8-1.3-2.2-2.1-4-2.1c-1.6,0-2.9,0.7-3.7,1.8v-1.5h-2.4v11.2h2.4v-6.2c0-1.8,1.2-3,2.8-3c1.5,0,2.6,1.1,2.6,2.8v6.4h2.4v-6.2c0-1.8,1.2-3,2.8-3c1.5,0,2.6,1.1,2.6,2.8v6.4h2.4v-6.8C43.8,16.5,41.6,14.4,38.4,14.4z M55.6,10.2h-2.4v5.6c-1.1-1.1-2.6-1.7-4.3-1.7c-3.4,0-5.9,2.5-5.9,5.9s2.5,5.9,5.9,5.9c1.7,0,3.2-0.6,4.3-1.7v1.4h2.4V10.2z M51.3,23.6c-2.1,0-3.6-1.5-3.6-3.6s1.5-3.6,3.6-3.6s3.6,1.5,3.6,3.6S53.4,23.6,51.3,23.6z M67.5,14.1c-3.4,0-5.9,2.5-5.9,5.9s2.5,5.9,5.9,5.9s5.9-2.5,5.9-5.9S70.9,14.1,67.5,14.1z M67.5,23.6c-2.1,0-3.6-1.5-3.6-3.6s1.5-3.6,3.6-3.6s3.6,1.5,3.6,3.6S69.6,23.6,67.5,23.6z M81.8,14.1c-2.4,0-4.3,1.3-5.2,3.3l2.1,0.9c0.6-1.2,1.7-1.9,3.1-1.9c1.8,0,3,1,3,2.6v0.4c-0.9-0.5-2-0.8-3.2-0.8c-2.6,0-4.5,1.5-4.5,3.7c0,2.2,1.8,3.7,4.2,3.7c1.6,0,2.9-0.6,3.7-1.7v1.4h2.4v-7.2C87.4,16.2,85.2,14.1,81.8,14.1z M82.1,23.7c-1.4,0-2.4-0.8-2.4-1.9c0-1.1,1-1.9,2.4-1.9c1.1,0,2.1,0.3,2.9,0.9v1C84.3,23.1,83.3,23.7,82.1,23.7z M95.8,14.1c-2.3,0-4.1,1.2-5,3.1l2.1,0.9c0.5-1.1,1.5-1.7,2.8-1.7c1.4,0,2.3,0.7,2.3,1.7c0,0.9-0.8,1.4-2.4,1.7c-2.7,0.5-4.6,1.2-4.6,3.5c0,2.1,1.8,3.5,4.2,3.5c1.6,0,2.9-0.7,3.6-1.8l1.8,1.5l1.4-1.4l-1.8-1.5c0.6-0.9,0.9-2,0.9-3.2C101.1,16.2,98.9,14.1,95.8,14.1z" transform="scale(3.5)"/>
    <path fill="url(#amdocs_grad)" d="M420,10c-5,0-10,2-14,6c-4-4-9-6-14-6c-12,0-22,10-22,22s10,22,22,22c5,0,10-2,14-6c4,4,9,6,14,6c12,0,22-10,22-22S432,10,420,10z" transform="scale(1.2) translate(-30, 0)"/>
  </g>
</svg>
