<svg xmlns="http://www.w3.org/2000/svg" viewBox="0 0 512 202">
  <path fill="#0068B5" d="M101.3 156.4H74.1V45.6h27.2v110.8zm34.4-110.8h27.2v14.8c5.4-6.1 12.4-10.8 20.9-14.1 8.5-3.3 17.8-5 27.9-5 15.4 0 28.4 3.6 39 10.8 10.6 7.2 18.5 17.4 23.7 30.6 5.2 13.2 7.8 28.4 7.8 45.6 0 17.2-2.6 32.4-7.8 45.6-5.2 13.2-13.1 23.4-23.7 30.6-10.6 7.2-23.6 10.8-39 10.8-10.1 0-19.4-1.7-27.9-5-8.5-3.3-15.5-8-20.9-14.1v41.2h-27.2V45.6zm81.4 83.6c0-11.4-1.6-21.3-4.8-29.7-3.2-8.4-7.8-14.8-13.8-19.2-6-4.4-13.2-6.6-21.6-6.6-8.4 0-15.6 2.2-21.6 6.6-6 4.4-10.6 10.8-13.8 19.2-3.2 8.4-4.8 18.3-4.8 29.7 0 11.4 1.6 21.3 4.8 29.7 3.2 8.4 7.8 14.8 13.8 19.2 6 4.4 13.2 6.6 21.6 6.6 8.4 0 15.6-2.2 21.6-6.6 6-4.4 10.6-10.8 13.8-19.2 3.2-8.4 4.8-18.3 4.8-29.7zm144.1 27.2c-10.6 0-19.8-2.4-27.6-7.2-7.8-4.8-13.7-11.5-17.7-20.1h73.1c.4-2.4.6-5.1.6-8.1 0-17.2-2.6-32.4-7.8-45.6-5.2-13.2-13.1-23.4-23.7-30.6-10.6-7.2-23.6-10.8-39-10.8-15.4 0-28.4 3.6-39 10.8-10.6 7.2-18.5 17.4-23.7 30.6-5.2 13.2-7.8 28.4-7.8 45.6 0 17.2 2.6 32.4 7.8 45.6 5.2 13.2 13.1 23.4 23.7 30.6 10.6 7.2 23.6 10.8 39 10.8 13.4 0 25.1-2.7 35.1-8.1 10-5.4 17.6-13.1 22.8-23.1l-23.7-11.1c-3.2 6.4-7.9 11.4-14.1 15.1-6.2 3.7-13.2 5.5-21 5.5zm-45.3-54.5c3.2-8.4 7.8-14.8 13.8-19.2 6-4.4 13.2-6.6 21.6-6.6 8.4 0 15.6 2.2 21.6 6.6 6 4.4 10.6 10.8 13.8 19.2H315.9zm122 54.5h27.2V45.6h-27.2v110.8zm0-138.1h27.2V45.6h-27.2v27.3z"/>
</svg>
