<svg xmlns="http://www.w3.org/2000/svg" viewBox="0 0 300 120">
  <path d="M20,85 Q150,10 280,85 L275,95 Q150,25 25,95 Z" fill="#009FE3" />
  <g fill="#004A99">
    <path d="M60,80l5-25h8l5 25h-5l-3-15h-7l-3 15h-5z M68,60l2-8 2 8h-4z"/> <!-- Representative paths for Hebrew מכבי -->
    <path d="M85,80v-25h15v5h-10v5h8v5h-8v5h10v5h-15z"/>
    <path d="M110,80v-25h15c5,0 8,3 8,8v9c0,5-3,8-8,8h-15z M115,60v15h10c2,0 3-1 3-3v-9c0-2-1-3-3-3h-10z"/>
    <path d="M145,80v-25h15v5h-10v5h8v5h-8v5h10v5h-15z"/>
    <path d="M170,80l5-25h8l5 25h-5l-3-15h-7l-3 15h-5z M178,60l2-8 2 8h-4z"/>
    <path d="M195,80v-25h5v25h-5z"/>
  </g>
</svg>
