<svg xmlns="http://www.w3.org/2000/svg" viewBox="0 0 512 79">
  <g transform="translate(0, 0)">
    <path fill="#EA4335" d="M36.1 19.5c0-1.8-.2-3.6-.6-5.3H7.4v10.1h16.1c-.7 3.7-2.8 6.8-5.9 8.9v7.4h9.5c5.6-5.1 8.8-12.7 8.8-21.1z"/>
    <path fill="#34A853" d="M7.4 48.5c7.7 0 14.1-2.5 18.8-6.9l-9.5-7.4c-2.6 1.8-6 2.8-9.3 2.8-7.2 0-13.3-4.8-15.5-11.3H-27.9v7.6c4.7 9.3 14.3 15.2 25.3 15.2z" transform="translate(10, 0)"/>
    <path fill="#FBBC05" d="M-8.1 25.7c-.6-1.8-.9-3.7-.9-5.7s.3-3.9.9-5.7v-7.6H-27.9c-2 4-3.1 8.5-3.1 13.3s1.1 9.3 3.1 13.3l19.8-7.6z" transform="translate(30, 0)"/>
    <path fill="#4285F4" d="M7.4 6.2c4.2 0 7.9 1.4 10.9 4.3l8.1-8.1C11.5-1.9 5.1-4.3-2.6-4.3c-11 0-20.6 5.9-25.3 15.2l19.8 7.6c2.2-6.5 8.3-11.3 15.5-11.3z" transform="translate(10, 10)"/>
  </g>
  <path fill="#5F6368" d="M80.1 39.5c0-10.1 7.8-18.1 17.8-18.1 5.1 0 9.1 2 12.3 5.1l-4.4 4.4c-2.3-2.2-5.3-3.7-7.9-3.7-6.8 0-11.9 5.6-11.9 12.3s5.1 12.3 11.9 12.3c2.7 0 5.1-1 7.1-2.9 2.4-2.4 3.6-5.7 3.9-8.8h-11v-5.8h16.8c.2.9.3 1.9.3 3 0 5.1-1.8 10.1-5.8 14.1-3.3 3.4-8.1 5.4-13.4 5.4-10-0.1-17.8-8.1-17.8-18.1z"/>
  <path fill="#5F6368" d="M126.4 40.1c0-10.1 7.6-17.5 17.1-17.5s17.1 7.4 17.1 17.5c0 10.1-7.6 17.5-17.1 17.5s-17.1-7.4-17.1-17.5zm28.3 0c0-6.6-4.8-11.7-11.2-11.7s-11.2 5.1-11.2 11.7 4.8 11.7 11.2 11.7 11.2-5.1 11.2-11.7z"/>
  <path fill="#5F6368" d="M163.6 40.1c0-10.1 7.6-17.5 17.1-17.5s17.1 7.4 17.1 17.5c0 10.1-7.6 17.5-17.1 17.5s-17.1-7.4-17.1-17.5zm28.3 0c0-6.6-4.8-11.7-11.2-11.7s-11.2 5.1-11.2 11.7 4.8 11.7 11.2 11.7 11.2-5.1 11.2-11.7z"/>
  <path fill="#5F6368" d="M200.8 40.1c0-10.1 7.6-17.5 17.1-17.5 4.5 0 8.1 1.7 10.7 4.5l.2-.2v-3.3h5.6v33.5c0 13.7-8.1 19.3-17.6 19.3-8.9 0-14.1-6-16.1-10.8l5-2.1c1.1 2.6 3.8 5.7 8.1 5.7 5.8 0 9.4-3.6 9.4-10.3v-2.5l-.2.2c-2.6 3.1-6.2 4.8-10.7 4.8-9.5 0-17.1-7.4-17.1-17.5zm28.3 0c0-6.6-4.8-11.7-11.2-11.7s-11.2 5.1-11.2 11.7 4.8 11.7 11.2 11.7 11.2-5.1 11.2-11.7z"/>
  <path fill="#5F6368" d="M237.4 23.1h5.9v33.5h-5.9z"/>
  <path fill="#5F6368" d="M266.1 47.1l4.7 3.1c-1.5 2.2-5.1 6.1-11.4 6.1-7.7 0-13.4-6-13.4-17.5 0-11.1 5.8-17.5 12.7-17.5 7 0 10.5 6.6 11.6 10.1l.6 1.5-18.1 7.5c1.4 2.7 3.5 4.1 6.5 4.1 3.1 0 5.1-1.5 6.4-3.4zm-14.2-7.5l12.1-5c-.7-1.7-2.7-2.9-5.1-2.9-3.1 0-7.8 2.7-7 7.9z"/>
</svg>
