<svg xmlns="http://www.w3.org/2000/svg" viewBox="0 0 300 80">
  <g fill="#000000">
    <path d="M10 10h12v45h25v10H10V10z"/> <!-- L -->
    <path d="M65 10h12l18 55h-12l-4-13H61l-4 13H45l20-55zm11 32l-5-16-5 16h10z"/> <!-- A -->
    <path d="M105 10h12l22 35V10h10v55h-10L117 30v35h-12V10z"/> <!-- N -->
    <path d="M160 10h18c15 0 25 10 25 27.5S193 65 178 65h-18V10zm12 45h6c10 0 15-6 15-17.5S188 20 178 20h-6v35z"/> <!-- D -->
    <path d="M225 10h12l18 55h-12l-4-13h-18l-4 13h-12l20-55zm11 32l-5-16-5 16h10z"/> <!-- A -->
  </g>
</svg>
