<svg xmlns="http://www.w3.org/2000/svg" width="512" height="109" viewBox="0 0 512 109">
  <rect fill="#f25022" x="0" y="0" width="48" height="48"/>
  <rect fill="#7fba00" x="52" y="0" width="48" height="48"/>
  <rect fill="#00a4ef" x="0" y="52" width="48" height="48"/>
  <rect fill="#ffb900" x="52" y="52" width="48" height="48"/>
  <path fill="#737373" d="M115.5 78.5v-54h10.2l12.4 40.1l12.4-40.1h10.2v54h-8.5v-41.7l-11.1 35.8h-6.1l-11.1-35.8v41.7h-8.5zm55.1-13c0-4.1 3.3-7.4 7.4-7.4s7.4 3.3 7.4 7.4s-3.3 7.4-7.4 7.4s-7.4-3.3-7.4-7.4zm3.2 12.6h7.6v-28.8h-7.6v28.8zm22-14.4c0-8.5 6.9-15.4 15.4-15.4c4.1 0 7.8 1.6 10.6 4.2l-4.8 5.4c-1.6-1.4-3.6-2.2-5.8-2.2c-4.3 0-7.8 3.5-7.8 7.8s3.5 7.8 7.8 7.8c2.2 0 4.2-.8 5.8-2.2l4.8 5.4c-2.8 2.6-6.5 4.2-10.6 4.2-8.5 0-15.4-6.9-15.4-15.4zm38 14.4h7.6v-5.4c1.6 3.6 5.2 6.1 9.4 6.1c1.1 0 2.1-.2 3.1-.5l-1.4-7.2c-.8.2-1.6.3-2.5.3-4.3 0-7.8-3.5-7.8-7.8v-14.3h-8.5v28.8zm27 14.4c0-8.5 6.9-15.4 15.4-15.4s15.4 6.9 15.4 15.4s-6.9 15.4-15.4 15.4-15.4-6.9-15.4-15.4zm8.5 0c0 4.3 3.5 7.8 7.8 7.8s7.8-3.5 7.8-7.8s-3.5-7.8-7.8-7.8-7.8 3.5-7.8 7.8zm31.5 7c0-4.3 3.5-7.8 7.8-7.8c2.2 0 4.2.8 5.8 2.2l4.8-5.4c-2.8-2.6-6.5-4.2-10.6-4.2c-8.5 0-15.4 6.9-15.4 15.4s6.9 15.4 15.4 15.4c4.1 0 7.8-1.6 10.6-4.2l-4.8-5.4c-1.6 1.4-3.6 2.2-5.8 2.2-4.3 0-7.8-3.5-7.8-7.4zm35-37h8.5v15.6h10.2v7.2h-10.2v21.6h-8.5v-21.6h-6.1v-7.2h6.1v-15.6zm35 15.6h7.6v-5.4c1.6 3.6 5.2 6.1 9.4 6.1c1.1 0 2.1-.2 3.1-.5l-1.4-7.2c-.8.2-1.6.3-2.5.3-4.3 0-7.8-3.5-7.8-7.8v-14.3h-8.5v28.8zm30 14.4c0-8.5 6.9-15.4 15.4-15.4s15.4 6.9 15.4 15.4s-6.9 15.4-15.4 15.4-15.4-6.9-15.4-15.4zm8.5 0c0 4.3 3.5 7.8 7.8 7.8s7.8-3.5 7.8-7.8-3.5-7.8-7.8-7.8-7.8 3.5-7.8 7.8zm31.5-14.4h7.6v-5.4c1.6 3.6 5.2 6.1 9.4 6.1 8.5 0 15.4 6.9 15.4 15.4s-6.9 15.4-15.4 15.4c-4.1 0-7.8-1.6-10.6-4.2v12.8h-8.5v-28.8zm8.5 14.4c0 4.3 3.5 7.8 7.8 7.8s7.8-3.5 7.8-7.8s-3.5-7.8-7.8-7.8-7.8 3.5-7.8 7.8zm31.5-30h8.5v15.6h10.2v7.2h-10.2v21.6h-8.5v-21.6h-6.1v-7.2h6.1v-15.6z"/>
</svg>
