<svg xmlns="http://www.w3.org/2000/svg" viewBox="0 0 1075 401">
  <path fill="#006699" d="M0 0h214v25H0zm240 0h214v25H240zm240 0h114v25H480zm140 0h114v25H620zm140 0h214v25H760zm101 54h113v25H861zm-101 0h75v25h-75zm-140 0h114v25H620zm-140 0h114v25H480zm-140 0h114v25H340zm-100 0h74v25h-74zm-100 0h74v25h-74zm-100 0h74v25H0zm0 54h74v25H0zm100 0h74v25h-74zm100 0h74v25h-74zm140 0h114v25H480zm140 0h114v25H620zm140 0h214v25H760zm101 53h113v25H861zm-101 0h75v25h-75zm-140 0h114v25H620zm-140 0h114v25H480zm-140 0h114v25H340zm-100 0h74v25h-74zm-100 0h74v25h-74zm-100 0h74v25H0zm0 54h74v25H0zm100 0h74v25h-74zm100 0h74v25h-74zm140 0h114v25H480zm140 0h114v25H620zm140 0h214v25H760zm101 54h113v25H861zm-101 0h75v25h-75zm-140 0h114v25H620zm-140 0h114v25H480zm-140 0h114v25H340zm-100 0h74v25h-74zm-100 0h74v25h-74zm-100 0h74v25H0zm0 54h74v25H0zm100 0h74v25h-74zm100 0h74v25h-74zm140 0h114v25H480zm140 0h114v25H620zm140 0h214v25H760zm101 53h113v25H861zm-101 0h75v25h-75zm-140 0h114v25H620zm-140 0h114v25H480zm-140 0h114v25H340zm-100 0h74v25h-74zm-100 0h74v25h-74zm-100 0h74v25H0z"/>
</svg>
